<svg width="20" height="26" viewBox="0 0 20 26" fill="none" xmlns="http://www.w3.org/2000/svg" xmlns:xlink="http://www.w3.org/1999/xlink">
<path d="M18.304,10.575L19.271,10.575L18.304,10.575ZM9.602,23.145L9.066,23.949C9.391,24.166 9.814,24.166 10.139,23.949L9.602,23.145ZM0.9,10.575L-0.066,10.575L0.9,10.575ZM9.602,1.873L9.602,2.84L9.602,1.873ZM17.337,10.575C17.337,13.571 15.388,16.477 13.251,18.733C12.203,19.84 11.151,20.746 10.36,21.376C9.965,21.69 9.637,21.934 9.41,22.098C9.297,22.18 9.208,22.242 9.15,22.283C9.12,22.303 9.098,22.318 9.084,22.328C9.077,22.333 9.072,22.336 9.069,22.338C9.067,22.339 9.066,22.34 9.066,22.34C9.066,22.34 9.066,22.34 9.066,22.34C9.066,22.34 9.066,22.34 9.066,22.34C9.066,22.34 9.066,22.34 9.602,23.145C10.139,23.949 10.139,23.949 10.139,23.949C10.139,23.949 10.14,23.948 10.14,23.948C10.14,23.948 10.141,23.947 10.142,23.947C10.144,23.946 10.146,23.944 10.148,23.943C10.154,23.939 10.161,23.934 10.171,23.928C10.189,23.915 10.216,23.896 10.251,23.873C10.319,23.825 10.418,23.756 10.542,23.666C10.791,23.486 11.143,23.224 11.564,22.889C12.405,22.219 13.528,21.252 14.655,20.063C16.869,17.726 19.271,14.348 19.271,10.575L17.337,10.575ZM9.602,23.145C10.139,22.34 10.139,22.34 10.139,22.34C10.139,22.34 10.139,22.34 10.139,22.34C10.139,22.34 10.139,22.34 10.139,22.34C10.138,22.34 10.137,22.339 10.136,22.338C10.133,22.336 10.128,22.333 10.121,22.328C10.106,22.318 10.084,22.303 10.055,22.283C9.996,22.242 9.908,22.18 9.794,22.098C9.567,21.934 9.24,21.69 8.845,21.376C8.054,20.746 7.002,19.84 5.953,18.733C3.816,16.477 1.867,13.571 1.867,10.575L-0.066,10.575C-0.066,14.348 2.335,17.726 4.549,20.063C5.676,21.252 6.8,22.219 7.64,22.889C8.061,23.224 8.414,23.486 8.662,23.666C8.787,23.756 8.885,23.825 8.954,23.873C8.988,23.896 9.015,23.915 9.034,23.928C9.044,23.934 9.051,23.939 9.056,23.943C9.059,23.944 9.061,23.946 9.063,23.947C9.064,23.947 9.064,23.948 9.065,23.948C9.065,23.948 9.065,23.949 9.065,23.949C9.066,23.949 9.066,23.949 9.602,23.145ZM1.867,10.575C1.867,8.524 2.682,6.556 4.133,5.106L2.765,3.738C0.952,5.551 -0.066,8.011 -0.066,10.575L1.867,10.575ZM4.133,5.106C5.583,3.655 7.551,2.84 9.602,2.84L9.602,0.906C7.038,0.906 4.579,1.925 2.765,3.738L4.133,5.106ZM9.602,2.84C11.654,2.84 13.621,3.655 15.072,5.106L16.439,3.738C14.626,1.925 12.167,0.906 9.602,0.906L9.602,2.84ZM15.072,5.106C16.522,6.556 17.337,8.524 17.337,10.575L19.271,10.575C19.271,8.011 18.252,5.551 16.439,3.738L15.072,5.106Z" fill="#000000"/>
<path d="M11.536,10.575C11.536,11.643 10.67,12.509 9.602,12.509L9.602,14.443C11.738,14.443 13.47,12.711 13.47,10.575L11.536,10.575ZM9.602,12.509C8.534,12.509 7.669,11.643 7.669,10.575L5.735,10.575C5.735,12.711 7.466,14.443 9.602,14.443L9.602,12.509ZM7.669,10.575C7.669,9.507 8.534,8.641 9.602,8.641L9.602,6.708C7.466,6.708 5.735,8.439 5.735,10.575L7.669,10.575ZM9.602,8.641C10.67,8.641 11.536,9.507 11.536,10.575L13.47,10.575C13.47,8.439 11.738,6.708 9.602,6.708L9.602,8.641Z" fill="#000000"/>
</svg>
