<svg width="50" height="50" viewBox="0 0 50 50" fill="none" xmlns="http://www.w3.org/2000/svg" xmlns:xlink="http://www.w3.org/1999/xlink">
<path d="M45.428,20.92L43.75,20.92L43.75,20.833L25,20.833L25,29.167L36.774,29.167C35.056,34.018 30.441,37.5 25,37.5C18.097,37.5 12.5,31.903 12.5,25C12.5,18.097 18.097,12.5 25,12.5C28.186,12.5 31.085,13.702 33.293,15.665L39.185,9.773C35.465,6.305 30.487,4.167 25,4.167C13.495,4.167 4.167,13.495 4.167,25C4.167,36.505 13.495,45.833 25,45.833C36.505,45.833 45.833,36.505 45.833,25C45.833,23.603 45.69,22.239 45.428,20.92Z" fill="#FFC107"/>
<path d="M6.569,15.303L13.414,20.323C15.266,15.737 19.751,12.5 25,12.5C28.187,12.5 31.085,13.702 33.293,15.665L39.185,9.773C35.465,6.305 30.488,4.167 25,4.167C16.998,4.167 10.058,8.684 6.569,15.303Z" fill="#FF3D00"/>
<path d="M25,45.834C30.381,45.834 35.271,43.774 38.968,40.425L32.52,34.969C30.358,36.613 27.716,37.502 25,37.5C19.581,37.5 14.98,34.045 13.247,29.223L6.453,34.458C9.901,41.204 16.903,45.834 25,45.834Z" fill="#4CAF50"/>
<path d="M45.428,20.92L43.75,20.92L43.75,20.833L25,20.833L25,29.167L36.774,29.167C35.952,31.476 34.472,33.493 32.517,34.97L32.52,34.968L38.968,40.424C38.511,40.839 45.833,35.417 45.833,25C45.833,23.603 45.69,22.24 45.428,20.92Z" fill="#1976D2"/>
</svg>
