<svg width="60" height="46" viewBox="0 0 60 46" fill="none" xmlns="http://www.w3.org/2000/svg" xmlns:xlink="http://www.w3.org/1999/xlink">
<path d="M39.375,23.875C39.375,26.361 38.387,28.746 36.629,30.504C34.871,32.262 32.486,33.25 30,33.25C27.514,33.25 25.129,32.262 23.371,30.504C21.613,28.746 20.625,26.361 20.625,23.875C20.625,21.389 21.613,19.004 23.371,17.246C25.129,15.488 27.514,14.5 30,14.5C32.486,14.5 34.871,15.488 36.629,17.246C38.387,19.004 39.375,21.389 39.375,23.875Z" fill="#333333"/>
<path d="M7.5,7C5.511,7 3.603,7.79 2.197,9.197C0.79,10.603 0,12.511 0,14.5L0,37C0,38.989 0.79,40.897 2.197,42.303C3.603,43.71 5.511,44.5 7.5,44.5L52.5,44.5C54.489,44.5 56.397,43.71 57.803,42.303C59.21,40.897 60,38.989 60,37L60,14.5C60,12.511 59.21,10.603 57.803,9.197C56.397,7.79 54.489,7 52.5,7L48.105,7C46.116,7 44.209,6.209 42.802,4.802L39.698,1.698C38.291,0.291 36.384,-0.5 34.395,-0.5L25.605,-0.5C23.616,-0.5 21.709,0.291 20.302,1.698L17.197,4.802C15.791,6.209 13.884,7 11.895,7L7.5,7ZM9.375,14.5C8.878,14.5 8.401,14.302 8.049,13.951C7.698,13.599 7.5,13.122 7.5,12.625C7.5,12.128 7.698,11.651 8.049,11.299C8.401,10.948 8.878,10.75 9.375,10.75C9.872,10.75 10.349,10.948 10.701,11.299C11.052,11.651 11.25,12.128 11.25,12.625C11.25,13.122 11.052,13.599 10.701,13.951C10.349,14.302 9.872,14.5 9.375,14.5ZM43.125,23.875C43.125,27.356 41.742,30.694 39.281,33.156C36.819,35.617 33.481,37 30,37C26.519,37 23.181,35.617 20.719,33.156C18.258,30.694 16.875,27.356 16.875,23.875C16.875,20.394 18.258,17.056 20.719,14.594C23.181,12.133 26.519,10.75 30,10.75C33.481,10.75 36.819,12.133 39.281,14.594C41.742,17.056 43.125,20.394 43.125,23.875Z" fill="#333333"/>
</svg>
