<svg width="60" height="46" viewBox="0 0 60 46" fill="none" xmlns="http://www.w3.org/2000/svg" xmlns:xlink="http://www.w3.org/1999/xlink">
<path d="M56.25,37.5C56.25,38.495 55.855,39.448 55.152,40.152C54.448,40.855 53.495,41.25 52.5,41.25L7.5,41.25C6.505,41.25 5.552,40.855 4.848,40.152C4.145,39.448 3.75,38.495 3.75,37.5L3.75,15C3.75,14.005 4.145,13.052 4.848,12.348C5.552,11.645 6.505,11.25 7.5,11.25L11.895,11.25C14.877,11.248 17.737,10.063 19.845,7.954L22.958,4.849C23.659,4.147 24.609,3.752 25.601,3.75L34.391,3.75C35.386,3.75 36.339,4.145 37.042,4.849L40.148,7.954C41.192,8.999 42.433,9.828 43.798,10.394C45.164,10.959 46.627,11.25 48.105,11.25L52.5,11.25C53.495,11.25 54.448,11.645 55.152,12.348C55.855,13.052 56.25,14.005 56.25,15L56.25,37.5ZM7.5,7.5C5.511,7.5 3.603,8.29 2.197,9.697C0.79,11.103 0,13.011 0,15L0,37.5C0,39.489 0.79,41.397 2.197,42.803C3.603,44.21 5.511,45 7.5,45L52.5,45C54.489,45 56.397,44.21 57.803,42.803C59.21,41.397 60,39.489 60,37.5L60,15C60,13.011 59.21,11.103 57.803,9.697C56.397,8.29 54.489,7.5 52.5,7.5L48.105,7.5C46.116,7.5 44.209,6.709 42.802,5.302L39.698,2.198C38.291,0.791 36.384,0 34.395,0L25.605,0C23.616,0 21.709,0.791 20.302,2.198L17.198,5.302C15.791,6.709 13.884,7.5 11.895,7.5L7.5,7.5Z" fill="#333333"/>
<path d="M30,33.75C27.514,33.75 25.129,32.762 23.371,31.004C21.613,29.246 20.625,26.861 20.625,24.375C20.625,21.889 21.613,19.504 23.371,17.746C25.129,15.988 27.514,15 30,15C32.486,15 34.871,15.988 36.629,17.746C38.387,19.504 39.375,21.889 39.375,24.375C39.375,26.861 38.387,29.246 36.629,31.004C34.871,32.762 32.486,33.75 30,33.75ZM30,37.5C33.481,37.5 36.819,36.117 39.281,33.656C41.742,31.194 43.125,27.856 43.125,24.375C43.125,20.894 41.742,17.556 39.281,15.094C36.819,12.633 33.481,11.25 30,11.25C26.519,11.25 23.181,12.633 20.719,15.094C18.258,17.556 16.875,20.894 16.875,24.375C16.875,27.856 18.258,31.194 20.719,33.656C23.181,36.117 26.519,37.5 30,37.5ZM11.25,16.875C11.25,17.372 11.052,17.849 10.701,18.201C10.349,18.552 9.872,18.75 9.375,18.75C8.878,18.75 8.401,18.552 8.049,18.201C7.698,17.849 7.5,17.372 7.5,16.875C7.5,16.378 7.698,15.901 8.049,15.549C8.401,15.198 8.878,15 9.375,15C9.872,15 10.349,15.198 10.701,15.549C11.052,15.901 11.25,16.378 11.25,16.875Z" fill="#333333"/>
</svg>
