<svg width="16" height="24" viewBox="0 0 16 24" fill="none" xmlns="http://www.w3.org/2000/svg" xmlns:xlink="http://www.w3.org/1999/xlink">
<path d="M7.487,23.406C7.367,23.405 7.248,23.379 7.138,23.331C6.993,23.264 6.871,23.157 6.785,23.023C6.7,22.889 6.655,22.733 6.655,22.574L6.655,13.764L1.173,19.246L0,18.073L6.314,11.759L0,5.445L1.173,4.272L6.655,9.754L6.655,0.945C6.655,0.785 6.7,0.63 6.785,0.495C6.871,0.361 6.993,0.254 7.138,0.188C7.282,0.121 7.443,0.097 7.601,0.119C7.759,0.142 7.907,0.208 8.028,0.312L13.851,5.304C13.942,5.382 14.016,5.479 14.066,5.588C14.116,5.697 14.142,5.816 14.142,5.936C14.147,6.051 14.128,6.166 14.087,6.273C14.045,6.381 13.982,6.478 13.901,6.56L8.66,11.759L13.901,16.992C13.978,17.069 14.039,17.162 14.08,17.263C14.122,17.364 14.143,17.473 14.142,17.582C14.137,17.697 14.109,17.809 14.059,17.912C14.009,18.015 13.938,18.107 13.851,18.181L8.028,23.173C7.882,23.314 7.69,23.396 7.487,23.406ZM8.319,13.764L8.319,20.768L12.087,17.532L8.319,13.764ZM8.319,2.75L8.319,9.754L12.087,5.986L8.319,2.75Z" fill="#000000"/>
</svg>
