<svg width="44" height="20" viewBox="0 0 44 20" fill="none" xmlns="http://www.w3.org/2000/svg" xmlns:xlink="http://www.w3.org/1999/xlink">
<path d="M4.889,15.333L4.889,3.917L24,3.917L24,15.333L4.889,15.333ZM41.556,4.868C42.23,4.868 42.806,5.054 43.284,5.426C43.761,5.797 44,6.246 44,6.771L44,12.479C44,13.004 43.761,13.453 43.284,13.824C42.806,14.196 42.23,14.382 41.556,14.382L41.556,16.76C41.556,17.414 41.256,17.974 40.658,18.44C40.06,18.905 39.34,19.138 38.5,19.138L3.056,19.138C2.215,19.138 1.496,18.905 0.898,18.44C0.299,17.974 0,17.414 0,16.76L0,2.49C0,1.836 0.299,1.276 0.898,0.81C1.496,0.344 2.215,0.111 3.056,0.111L38.5,0.111C39.34,0.111 40.06,0.344 40.658,0.81C41.256,1.276 41.556,1.836 41.556,2.49L41.556,4.868ZM41.556,12.479L41.556,6.771L39.111,6.771L39.111,2.49C39.111,2.351 39.054,2.237 38.939,2.148C38.825,2.059 38.678,2.014 38.5,2.014L3.056,2.014C2.877,2.014 2.731,2.059 2.616,2.148C2.502,2.237 2.444,2.351 2.444,2.49L2.444,16.76C2.444,16.899 2.502,17.013 2.616,17.102C2.731,17.191 2.877,17.236 3.056,17.236L38.5,17.236C38.678,17.236 38.825,17.191 38.939,17.102C39.054,17.013 39.111,16.899 39.111,16.76L39.111,12.479L41.556,12.479Z" fill="#000000"/>
</svg>
