<svg width="34" height="42" viewBox="0 0 34 42" fill="none" xmlns="http://www.w3.org/2000/svg" xmlns:xlink="http://www.w3.org/1999/xlink">
<path d="M31,33.333L33,33.333L31,33.333ZM25,9.333L27,9.333L25,9.333ZM16,1.333L16,-0.667L16,1.333ZM-1,33.333L-1,36L3,36L3,33.333L-1,33.333ZM-1,36C-1,37.319 -0.409,38.528 0.55,39.38L3.207,36.391C3.041,36.243 3,36.096 3,36L-1,36ZM0.55,39.38C1.501,40.226 2.745,40.667 4,40.667L4,36.667C3.664,36.667 3.382,36.546 3.207,36.391L0.55,39.38ZM4,40.667L28,40.667L28,36.667L4,36.667L4,40.667ZM28,40.667C29.255,40.667 30.499,40.226 31.45,39.38L28.793,36.391C28.618,36.546 28.336,36.667 28,36.667L28,40.667ZM31.45,39.38C32.409,38.528 33,37.319 33,36L29,36C29,36.096 28.959,36.243 28.793,36.391L31.45,39.38ZM33,36L33,33.333L29,33.333L29,36L33,36ZM33,33.333C33,30.6 31.776,28.034 29.693,26.182L27.035,29.171C28.327,30.32 29,31.823 29,33.333L33,33.333ZM29.693,26.182C27.617,24.336 24.846,23.333 22,23.333L22,27.333C23.928,27.333 25.736,28.016 27.035,29.171L29.693,26.182ZM22,23.333L10,23.333L10,27.333L22,27.333L22,23.333ZM10,23.333C7.154,23.333 4.383,24.336 2.307,26.182L4.965,29.171C6.264,28.016 8.072,27.333 10,27.333L10,23.333ZM2.307,26.182C0.224,28.034 -1,30.6 -1,33.333L3,33.333C3,31.823 3.673,30.32 4.965,29.171L2.307,26.182ZM23,9.333C23,10.843 22.327,12.347 21.035,13.495L23.693,16.485C25.776,14.633 27,12.067 27,9.333L23,9.333ZM21.035,13.495C19.736,14.65 17.928,15.333 16,15.333L16,19.333C18.846,19.333 21.617,18.33 23.693,16.485L21.035,13.495ZM16,15.333C14.072,15.333 12.264,14.65 10.965,13.495L8.307,16.485C10.383,18.33 13.154,19.333 16,19.333L16,15.333ZM10.965,13.495C9.673,12.347 9,10.843 9,9.333L5,9.333C5,12.067 6.224,14.633 8.307,16.485L10.965,13.495ZM9,9.333C9,7.823 9.673,6.32 10.965,5.171L8.307,2.182C6.224,4.034 5,6.6 5,9.333L9,9.333ZM10.965,5.171C12.264,4.016 14.072,3.333 16,3.333L16,-0.667C13.154,-0.667 10.383,0.336 8.307,2.182L10.965,5.171ZM16,3.333C17.928,3.333 19.736,4.016 21.035,5.171L23.693,2.182C21.617,0.336 18.846,-0.667 16,-0.667L16,3.333ZM21.035,5.171C22.327,6.32 23,7.823 23,9.333L27,9.333C27,6.6 25.776,4.034 23.693,2.182L21.035,5.171Z" fill="#333333"/>
</svg>
