<svg width="36" height="42" viewBox="0 0 36 42" fill="none" xmlns="http://www.w3.org/2000/svg" xmlns:xlink="http://www.w3.org/1999/xlink">
<path d="M33,33.333L35,33.333L33,33.333ZM27,9.333L29,9.333L27,9.333ZM18,1.333L18,-0.667L18,1.333ZM1,33.333L1,36L5,36L5,33.333L1,33.333ZM1,36C1,37.319 1.591,38.528 2.55,39.381L5.207,36.391C5.041,36.243 5,36.096 5,36L1,36ZM2.55,39.381C3.501,40.226 4.745,40.667 6,40.667L6,36.667C5.664,36.667 5.382,36.546 5.207,36.391L2.55,39.381ZM6,40.667L30,40.667L30,36.667L6,36.667L6,40.667ZM30,40.667C31.255,40.667 32.499,40.226 33.45,39.381L30.793,36.391C30.618,36.546 30.336,36.667 30,36.667L30,40.667ZM33.45,39.381C34.409,38.528 35,37.319 35,36L31,36C31,36.096 30.959,36.243 30.793,36.391L33.45,39.381ZM35,36L35,33.333L31,33.333L31,36L35,36ZM35,33.333C35,30.6 33.776,28.034 31.693,26.182L29.035,29.171C30.327,30.32 31,31.823 31,33.333L35,33.333ZM31.693,26.182C29.617,24.336 26.846,23.333 24,23.333L24,27.333C25.928,27.333 27.736,28.016 29.035,29.171L31.693,26.182ZM24,23.333L12,23.333L12,27.333L24,27.333L24,23.333ZM12,23.333C9.154,23.333 6.383,24.336 4.307,26.182L6.965,29.171C8.264,28.016 10.072,27.333 12,27.333L12,23.333ZM4.307,26.182C2.224,28.034 1,30.6 1,33.333L5,33.333C5,31.823 5.673,30.32 6.965,29.171L4.307,26.182ZM25,9.333C25,10.843 24.327,12.347 23.035,13.495L25.693,16.485C27.776,14.633 29,12.067 29,9.333L25,9.333ZM23.035,13.495C21.736,14.651 19.928,15.333 18,15.333L18,19.333C20.846,19.333 23.617,18.33 25.693,16.485L23.035,13.495ZM18,15.333C16.072,15.333 14.264,14.651 12.965,13.495L10.307,16.485C12.383,18.33 15.154,19.333 18,19.333L18,15.333ZM12.965,13.495C11.673,12.347 11,10.843 11,9.333L7,9.333C7,12.067 8.224,14.633 10.307,16.485L12.965,13.495ZM11,9.333C11,7.823 11.673,6.32 12.965,5.171L10.307,2.182C8.224,4.034 7,6.6 7,9.333L11,9.333ZM12.965,5.171C14.264,4.016 16.072,3.333 18,3.333L18,-0.667C15.154,-0.667 12.383,0.336 10.307,2.182L12.965,5.171ZM18,3.333C19.928,3.333 21.736,4.016 23.035,5.171L25.693,2.182C23.617,0.336 20.846,-0.667 18,-0.667L18,3.333ZM23.035,5.171C24.327,6.32 25,7.823 25,9.333L29,9.333C29,6.6 27.776,4.034 25.693,2.182L23.035,5.171Z" fill="#333333"/>
</svg>
