<svg width="16" height="22" viewBox="0 0 16 22" fill="none" xmlns="http://www.w3.org/2000/svg" xmlns:xlink="http://www.w3.org/1999/xlink">
<path d="M7.487,20.378C7.367,20.377 7.248,20.355 7.138,20.313C6.993,20.255 6.871,20.163 6.785,20.047C6.7,19.931 6.655,19.796 6.655,19.659L6.655,12.046L1.173,16.784L0,15.77L6.314,10.314L0,4.858L1.173,3.845L6.655,8.582L6.655,0.969C6.655,0.832 6.7,0.697 6.785,0.581C6.871,0.465 6.993,0.373 7.138,0.315C7.282,0.258 7.443,0.237 7.601,0.256C7.759,0.275 7.907,0.333 8.028,0.423L13.851,4.736C13.942,4.803 14.015,4.887 14.066,4.982C14.116,5.076 14.142,5.178 14.142,5.282C14.147,5.382 14.128,5.481 14.087,5.574C14.045,5.666 13.982,5.751 13.901,5.821L8.66,10.314L13.901,14.836C13.978,14.903 14.039,14.982 14.08,15.07C14.122,15.158 14.143,15.251 14.142,15.346C14.137,15.445 14.109,15.542 14.059,15.631C14.009,15.72 13.938,15.799 13.851,15.863L8.028,20.176C7.882,20.298 7.69,20.37 7.487,20.378ZM8.319,12.046L8.319,18.099L12.087,15.303L8.319,12.046ZM8.319,2.529L8.319,8.582L12.087,5.325L8.319,2.529Z" fill="#000000"/>
</svg>
