<svg width="34" height="34" viewBox="0 0 34 34" fill="none" xmlns="http://www.w3.org/2000/svg" xmlns:xlink="http://www.w3.org/1999/xlink">
<path d="M21.741,19.085C20.18,17.697 18.163,16.93 16.074,16.93C13.985,16.93 11.969,17.697 10.407,19.085C10.275,19.199 10.168,19.338 10.09,19.494C10.012,19.651 9.966,19.821 9.955,19.995C9.944,20.169 9.967,20.344 10.024,20.509C10.08,20.674 10.169,20.826 10.285,20.956C10.401,21.086 10.542,21.192 10.699,21.268C10.856,21.343 11.027,21.387 11.201,21.396C11.375,21.405 11.55,21.379 11.714,21.32C11.878,21.261 12.029,21.171 12.158,21.053C13.237,20.094 14.631,19.564 16.074,19.564C17.518,19.564 18.912,20.094 19.991,21.053C20.252,21.285 20.594,21.404 20.943,21.383C21.292,21.363 21.618,21.205 21.851,20.943C22.083,20.682 22.202,20.34 22.181,19.991C22.16,19.642 22.002,19.316 21.741,19.083L21.741,19.085Z" fill="#000000"/>
<path d="M16.073,11.521C12.537,11.516 9.132,12.86 6.553,15.279C6.422,15.396 6.316,15.538 6.241,15.696C6.166,15.855 6.123,16.027 6.116,16.202C6.108,16.377 6.135,16.552 6.196,16.716C6.257,16.881 6.35,17.032 6.469,17.16C6.589,17.288 6.733,17.391 6.893,17.462C7.053,17.534 7.226,17.573 7.401,17.577C7.577,17.581 7.751,17.55 7.914,17.486C8.077,17.421 8.226,17.325 8.351,17.203C10.446,15.244 13.206,14.155 16.073,14.155C18.94,14.155 21.701,15.244 23.795,17.203C23.92,17.325 24.069,17.421 24.232,17.486C24.395,17.55 24.57,17.581 24.745,17.577C24.92,17.573 25.093,17.534 25.253,17.462C25.413,17.391 25.557,17.288 25.677,17.16C25.797,17.032 25.89,16.881 25.95,16.716C26.011,16.552 26.038,16.377 26.031,16.202C26.023,16.027 25.98,15.855 25.905,15.696C25.83,15.538 25.724,15.396 25.594,15.279C23.014,12.86 19.609,11.516 16.073,11.521L16.073,11.521Z" fill="#000000"/>
<path d="M28.976,11.03C25.425,7.861 20.832,6.11 16.073,6.11C11.314,6.11 6.722,7.861 3.171,11.03C3.038,11.144 2.928,11.283 2.849,11.44C2.771,11.597 2.724,11.768 2.712,11.943C2.701,12.118 2.724,12.294 2.781,12.46C2.838,12.626 2.928,12.779 3.045,12.909C3.162,13.04 3.304,13.146 3.463,13.221C3.621,13.296 3.793,13.339 3.969,13.347C4.144,13.355 4.319,13.327 4.484,13.266C4.648,13.205 4.799,13.112 4.927,12.992C7.995,10.256 11.962,8.744 16.073,8.744C20.184,8.744 24.151,10.256 27.219,12.992C27.479,13.225 27.821,13.345 28.17,13.325C28.519,13.306 28.846,13.149 29.079,12.888C29.312,12.628 29.431,12.286 29.412,11.937C29.393,11.588 29.235,11.261 28.975,11.028L28.976,11.03Z" fill="#000000"/>
<path d="M16.073,26.68C17.182,26.68 18.08,25.782 18.08,24.673C18.08,23.565 17.182,22.667 16.073,22.667C14.965,22.667 14.066,23.565 14.066,24.673C14.066,25.782 14.965,26.68 16.073,26.68Z" fill="#000000"/>
</svg>
